<?xml version="1.0" standalone="no"?>
<!DOCTYPE svg PUBLIC "-//W3C//DTD SVG 20010904//EN"
 "http://www.w3.org/TR/2001/REC-SVG-20010904/DTD/svg10.dtd">
<svg version="1.0" xmlns="http://www.w3.org/2000/svg"
 width="96.000000pt" height="65.000000pt" viewBox="0 0 96.000000 65.000000"
 preserveAspectRatio="xMidYMid meet">
<metadata>
Created by potrace 1.11, written by Peter Selinger 2001-2013
</metadata>
<g transform="translate(0.000000,65.000000) scale(0.100000,-0.100000)"
fill="#000000" stroke="none">
<path d="M111 530 c43 -38 45 -39 122 -40 l77 0 0 -205 0 -205 60 0 60 0 2
203 3 202 98 3 c209 6 237 -43 99 -175 l-55 -53 71 0 70 0 42 53 c90 113 113
197 64 236 -26 20 -38 21 -392 21 l-365 0 44 -40z"/>
</g>
</svg>
