<?xml version="1.0" encoding="utf-8"?>
<!-- Generator: Adobe Illustrator 16.0.0, SVG Export Plug-In . SVG Version: 6.00 Build 0)  -->
<!DOCTYPE svg PUBLIC "-//W3C//DTD SVG 1.1//EN" "http://www.w3.org/Graphics/SVG/1.1/DTD/svg11.dtd">
<svg version="1.1" id="Layer_1" xmlns="http://www.w3.org/2000/svg" xmlns:xlink="http://www.w3.org/1999/xlink" x="0px" y="0px"
	 width="110.28px" height="67.25px" viewBox="0 0 110.28 67.25" enable-background="new 0 0 110.28 67.25" xml:space="preserve">
<g>
	
		<image overflow="visible" width="456" height="297" xlink:href="FCFC2C6D5B92D2FB.png"  transform="matrix(0.24 0 0 0.24 0.5361 -1.896)">
	</image>
	<g>
		<g>
			<path stroke="#FFFFFF" stroke-width="0.5" stroke-miterlimit="10" d="M49.532,14.447v48.449H35.401V14.447H17.233L7.14,4.354
				h79.402c0,0,28.71,0-3.589,36.336H66.803c0,0,33.869-26.243,3.589-26.243H49.532z"/>
			<polygon stroke="#FFFFFF" stroke-width="0.5" stroke-miterlimit="10" points="89.009,48.765 72.859,48.765 66.803,42.709 
				82.953,42.709 			"/>
			<polygon stroke="#FFFFFF" stroke-width="0.5" stroke-miterlimit="10" points="95.065,54.821 78.916,54.821 74.878,50.784 
				91.027,50.784 			"/>
			<polygon stroke="#FFFFFF" stroke-width="0.5" stroke-miterlimit="10" points="99.102,58.859 82.953,58.859 80.934,56.84 
				97.083,56.84 			"/>
			<polygon stroke="#FFFFFF" stroke-width="0.5" stroke-miterlimit="10" points="103.14,62.896 86.99,62.896 84.971,60.877 
				101.121,60.877 			"/>
		</g>
	</g>
</g>
</svg>
